<?xml version="1.0" standalone="no"?><!DOCTYPE svg PUBLIC "-//W3C//DTD SVG 1.1//EN" "http://www.w3.org/Graphics/SVG/1.1/DTD/svg11.dtd"><svg t="1691568274342" class="icon" viewBox="0 0 1024 1024" version="1.1" xmlns="http://www.w3.org/2000/svg" p-id="6766" xmlns:xlink="http://www.w3.org/1999/xlink" width="200" height="200"><path d="M62.0544 819.2c-32.426667 0-59.255467-24.644267-61.8496-55.773867L0 758.442667v-60.757334c0-31.778133 25.224533-58.0608 57.002667-60.6208l5.051733-0.2048h314.026667c1.024-11.502933 3.140267-22.801067 6.3488-33.6896H62.0544c-32.426667 0-59.255467-24.644267-61.8496-55.773866L0 542.378667v-60.757334c0-31.778133 25.224533-58.0608 57.002667-60.6208l5.051733-0.2048 487.082667-0.068266a192.7168 192.7168 0 0 1 30.037333-33.655467l-517.12 0.034133c-32.426667 0-59.255467-24.644267-61.8496-55.773866L0 326.382933v-60.757333C0 233.813333 25.224533 207.530667 57.002667 204.970667L62.0544 204.8h558.557867c32.426667 0 59.255467 24.712533 61.8496 55.842133L682.666667 265.557333v60.791467c0 5.5296-0.750933 10.888533-2.184534 15.9744 6.212267-0.682667 12.561067-1.024 18.909867-1.024 60.3136 0 116.974933 30.446933 151.6544 81.476267a24.4736 24.4736 0 0 1-5.632 33.348266 22.698667 22.698667 0 0 1-32.256-5.802666c-26.043733-38.263467-68.5056-61.098667-113.664-61.098667-61.3376 0-113.493333 41.301333-131.8912 98.304-2.389333 7.304533-4.130133 19.3536-5.3248 29.457067a17.408 17.408 0 0 1-18.0224 15.701333 115.0976 115.0976 0 0 0-29.969067 2.1504c-53.384533 11.3664-93.422933 60.484267-92.501333 118.9888 1.058133 64.6144 54.1696 117.418667 116.701867 117.418667h322.491733c62.976 0 115.2-51.575467 116.599467-116.565334 1.467733-67.072-50.858667-122.197333-115.473067-122.197333-63.556267 0-115.3024 53.3504-115.473067 119.057067 0 12.014933-9.557333 23.1424-21.128533 24.132266a23.483733 23.483733 0 0 1-25.224533-23.825066c0-44.714667 16.827733-86.698667 47.4112-118.306134a158.173867 158.173867 0 0 1 228.829866 0A169.437867 169.437867 0 0 1 1024 651.946667c0 44.680533-16.827733 86.698667-47.377067 118.272A158.173867 158.173867 0 0 1 862.788267 819.2H62.0544z m314.641067-146.3296H66.901333c-15.837867 0-28.2624 16.213333-30.071466 27.306667l-0.238934 2.6624v50.210133c0 13.243733 7.0656 29.9008 26.043734 32.085333l4.266666 0.2048 372.736 0.034134a168.209067 168.209067 0 0 1-62.941866-112.503467z m152.576-216.064H66.901333c-15.837867 0-28.2624 16.247467-30.071466 27.3408l-0.238934 2.6624v50.210133c0 13.243733 7.0656 29.9008 26.043734 32.085334l4.266666 0.2048h329.591467a167.594667 167.594667 0 0 1 26.350933-35.6352 158.6176 158.6176 0 0 1 96.938667-48.093867c2.389333-9.8304 5.563733-19.456 9.454933-28.7744z m82.773333-215.995733H66.901333c-15.837867 0-28.2624 16.213333-30.071466 27.306666l-0.238934 2.6624v50.210134c0 13.243733 7.0656 29.9008 26.043734 32.085333l4.266666 0.2048h545.109334c17.169067 0 29.730133-15.1552 31.573333-25.975467l0.238933-2.594133v-53.930667c0.034133-18.056533-13.653333-29.969067-31.778133-29.969066z m-62.8736 24.7808l3.8912 0.238933c15.291733 1.877333 27.136 14.677333 27.136 30.139733a30.6176 30.6176 0 0 1-27.136 30.139734l-3.8912 0.238933a30.651733 30.651733 0 0 1-31.0272-30.378667 30.72 30.72 0 0 1 31.061333-30.378666z" fill="#13227a" p-id="6767"></path></svg>